# xmcd
#
# Track frame offsets:
#	150
#	20012
#	33570
#	52576
#	74135
#	90242
#	112980
#	130339
#	142395
#	161562
#	177369
#
# Disc length: 2599 seconds
# Revision: 0
# Processed by: cddbd v1.5.2PL0 Copyright (c) Steve Scherf et al.
# Submitted via: dBpowerAMP V12.0
#
DISCID=990a250b
DTITLE=Eric Hanke - Factory Man
DYEAR=2011
DGENRE=Country
TTITLE0=It Ain't Really Love
TTITLE1=Never Gonna Leave You Now
TTITLE2=Factory Man
TTITLE3=Keep My Love
TTITLE4=Hope Your Dreams Come True
TTITLE5=Mr. Slim's Blues
TTITLE6=Burn It Down
TTITLE7=Gotta Little
TTITLE8=East Side Blues
TTITLE9=Been Knocked Down
TTITLE10=No More Tears
EXTD=
EXTT0=
EXTT1=
EXTT2=
EXTT3=
EXTT4=
EXTT5=
EXTT6=
EXTT7=
EXTT8=
EXTT9=
EXTT10=
PLAYORDER=
